<svg width="34" height="34" viewBox="0 0 34 34" fill="none" xmlns="http://www.w3.org/2000/svg">
<g clip-path="url(#clip0)">
<path d="M17 9.92892L14.1716 12.7573L15.5858 14.1716L18.4142 11.3431C19.5809 10.1764 21.4901 10.1764 22.6569 11.3431C23.8236 12.5099 23.8236 14.419 22.6569 15.5858L19.8284 18.4142L21.2426 19.8284L24.0711 17C26.0227 15.0484 26.0227 11.8805 24.0711 9.92892C22.1195 7.97731 18.9516 7.97731 17 9.92892ZM18.4142 19.8284L15.5858 22.6568C14.4191 23.8236 12.5099 23.8236 11.3431 22.6568C10.1764 21.4901 10.1764 19.5809 11.3431 18.4142L14.1716 15.5858L12.7574 14.1716L9.92893 17C7.97732 18.9516 7.97732 22.1194 9.92893 24.0711C11.8805 26.0227 15.0484 26.0227 17 24.0711L19.8284 21.2426L18.4142 19.8284ZM13.4645 19.1213L19.1213 13.4645L20.5355 14.8787L14.8787 20.5355L13.4645 19.1213Z" fill="#0D6EFD"/>
</g>
<defs>
<clipPath id="clip0">
<rect width="24" height="24" fill="white" transform="translate(0.029438 17) rotate(-45)"/>
</clipPath>
</defs>
</svg>
